# xmcd
#
# Track frame offsets:
#	150
#	41647
#	61001
#	79707
#	117362
#	141060
#	172183
#	193494
#	224068
#	240296
#	271936
#	303832
#
# Disc length: 4224 seconds
#
# Revision: 0
# Processed by: cddbd v1.5.2PL0 Copyright (c) Steve Scherf et al.
# Submitted via: audiograbber 1.83.01
#
DISCID=ac107e0c
DTITLE=Joachim Heinzle - Die Nibelungen
DYEAR=2009
DGENRE=Acid
TTITLE0=Erzählen und Wiedererzählen - Das Nibelungenlied
TTITLE1=Erzählen und Wiedererzählen - Das Nibelungenlied
TTITLE2=Ursprung und Entstehung der Sage
TTITLE3=Ursprung und Entstehung der Sage
TTITLE4=Die Spuf der Sage
TTITLE5=Die Entstehung des Nibelungenliedes
TTITLE6=Die Entstehung des Nibelungenliedes
TTITLE7=Work in Progress - Die Überlieferung des Nibelungenliedes
TTITLE8=Orte der Handlung
TTITLE9=Räume und Zeichen
TTITLE10=Höfisches und unhöfisches
TTITLE11=Die Interpretierparkeit des Nibelungenliedes
EXTD=
EXTT0=
EXTT1=
EXTT2=
EXTT3=
EXTT4=
EXTT5=
EXTT6=
EXTT7=
EXTT8=
EXTT9=
EXTT10=
EXTT11=
PLAYORDER=
